<?xml version="1.0" encoding="utf-8"?>
<!-- Generator: Adobe Illustrator 19.2.1, SVG Export Plug-In . SVG Version: 6.00 Build 0)  -->
<svg version="1.1" id="Capa_1" xmlns="http://www.w3.org/2000/svg" xmlns:xlink="http://www.w3.org/1999/xlink" x="0px" y="0px"
	 viewBox="0 0 70 70" style="enable-background:new 0 0 70 70;" xml:space="preserve">
<style type="text/css">
	.st0{fill:#FFFFFF;}
</style>
<path class="st0" d="M59.8,10.3C53.4,3.9,44.7,0,35,0c-9.7,0-18.4,3.9-24.7,10.2C3.9,16.6,0,25.3,0,35c0,9.7,3.9,18.4,10.2,24.8
	C16.6,66.1,25.3,70,35,70c9.7,0,18.4-3.9,24.8-10.2C66.1,53.4,70,44.7,70,35C70,25.3,66.1,16.6,59.8,10.3 M56.8,56.8
	c-5.6,5.6-13.3,9-21.8,9c-8.5,0-16.2-3.4-21.7-9c-5.5-5.6-9-13.3-9-21.7s3.4-16.2,9-21.7c5.6-5.6,13.2-9,21.7-9
	c8.5,0,16.2,3.4,21.8,9c5.6,5.6,9,13.3,9,21.7S62.3,51.2,56.8,56.8"/>
<path class="st0" d="M52.6,48.1l-8.5-8.5c1.4-2.3,2.3-5,2.3-7.9c0-8.3-6.7-14.9-14.9-14.9c-8.2,0-14.9,6.7-14.9,14.9
	c0,8.2,6.7,14.9,14.9,14.9c3.2,0,6.1-1,8.5-2.7l8.4,8.4c0.6,0.6,1.3,0.9,2.1,0.9c0.8,0,1.5-0.3,2.1-0.9
	C53.8,51.2,53.8,49.3,52.6,48.1 M31.5,41.8c-5.6,0-10.1-4.5-10.1-10.1s4.5-10.1,10.1-10.1c5.6,0,10.1,4.5,10.1,10.1
	S37,41.8,31.5,41.8"/>
</svg>
